<svg xmlns="http://www.w3.org/2000/svg" viewBox="0 0 920 498" font-family="Inter,'Segoe UI',Helvetica,Arial,sans-serif">
<!-- GENERATED by generate-figures.js from: RESULTS-ratchet.json · RESULTS-alias-ring.json — do not edit by hand -->
<defs><marker id="arr" viewBox="0 0 10 10" refX="9" refY="5" markerWidth="7" markerHeight="7" orient="auto-start-reverse"><path d="M0,0 L10,5 L0,10 z" fill="#6b7280"/></marker></defs>
<rect width="920" height="498" fill="white"/>
<text x="40" y="34" font-size="12" fill="#6b7280" text-anchor="start" font-weight="600" font-style="normal" font-family="inherit">EDGE grain (ratchet, order 0, both domains):</text><text x="40" y="68" font-size="12" fill="#dc2626" text-anchor="start" font-weight="700" font-style="normal" font-family="inherit">UNGATED</text><rect x="150" y="52" width="177.79999999999998" height="24" rx="12" fill="#fef2f2" stroke="#dc2626" stroke-width="1.2"/><text x="238.89999999999998" y="68.5" font-size="11" fill="#dc2626" text-anchor="middle" font-weight="normal" font-style="normal" font-family="inherit">pyramid→square ADMITTED</text><rect x="337.79999999999995" y="52" width="191" height="24" rx="12" fill="#fef2f2" stroke="#dc2626" stroke-width="1.2"/><text x="433.29999999999995" y="68.5" font-size="11" fill="#dc2626" text-anchor="middle" font-weight="normal" font-style="normal" font-family="inherit">fern→terrestrial ADMITTED</text><rect x="538.8" y="52" width="184.39999999999998" height="24" rx="12" fill="#fef2f2" stroke="#dc2626" stroke-width="1.2"/><text x="631" y="68.5" font-size="11" fill="#dc2626" text-anchor="middle" font-weight="normal" font-style="normal" font-family="inherit">silent damage: 1+1/ordre</text><text x="40" y="108" font-size="12" fill="#15803d" text-anchor="start" font-weight="700" font-style="normal" font-family="inherit">GATED</text><rect x="150" y="92" width="111.8" height="24" rx="12" fill="#f0fdf4" stroke="#15803d" stroke-width="1.2"/><text x="205.9" y="108.5" font-size="11" fill="#15803d" text-anchor="middle" font-weight="normal" font-style="normal" font-family="inherit">0 false edges</text><rect x="271.8" y="92" width="111.8" height="24" rx="12" fill="#f8fafc" stroke="#c2c8d0" stroke-width="1.2"/><text x="327.7" y="108.5" font-size="11" fill="#6b7280" text-anchor="middle" font-weight="normal" font-style="normal" font-family="inherit">quarantaine 2</text><rect x="393.6" y="92" width="92" height="24" rx="12" fill="#f8fafc" stroke="#c2c8d0" stroke-width="1.2"/><text x="439.6" y="108.5" font-size="11" fill="#6b7280" text-anchor="middle" font-weight="normal" font-style="normal" font-family="inherit">refusals 2</text><rect x="495.6" y="92" width="72.19999999999999" height="24" rx="12" fill="#f8fafc" stroke="#c2c8d0" stroke-width="1.2"/><text x="531.7" y="108.5" font-size="11" fill="#6b7280" text-anchor="middle" font-weight="normal" font-style="normal" font-family="inherit">retry 1</text><rect x="577.8" y="92" width="131.6" height="24" rx="12" fill="#f8fafc" stroke="#c2c8d0" stroke-width="1.2"/><text x="643.5999999999999" y="108.5" font-size="11" fill="#6b7280" text-anchor="middle" font-weight="normal" font-style="normal" font-family="inherit">premium +3 calls</text><text x="40" y="176" font-size="12" fill="#6b7280" text-anchor="start" font-weight="600" font-style="normal" font-family="inherit">VOCABULARY grain (G4 ring, order 0 — 15 exposures per arm):</text><text x="40" y="250" font-size="11.5" fill="#15803d" text-anchor="start" font-weight="700" font-style="normal" font-family="inherit">GATED</text><line x1="108" y1="246" x2="872" y2="246" stroke="#e5e7eb" stroke-width="1"/><circle cx="120" cy="246" r="6" fill="#15803d"/><path d="M 114 232 l 6 -10 l 6 10 z" fill="#2563eb"/><circle cx="172" cy="246" r="6" fill="#15803d"/><circle cx="224" cy="246" r="6" fill="#15803d"/><circle cx="276" cy="246" r="6" fill="#15803d"/><path d="M 270 232 l 6 -10 l 6 10 z" fill="#2563eb"/><circle cx="328" cy="246" r="6" fill="#15803d"/><path d="M 322 232 l 6 -10 l 6 10 z" fill="#2563eb"/><path d="M 322 219 l 6 -10 l 6 10 z" fill="#2563eb"/><circle cx="380" cy="246" r="6" fill="#15803d"/><circle cx="432" cy="246" r="6" fill="white" stroke="#15803d" stroke-width="2"/><circle cx="484" cy="246" r="6" fill="white" stroke="#15803d" stroke-width="2"/><path d="M 478 232 l 6 -10 l 6 10 z" fill="#2563eb"/><circle cx="536" cy="246" r="6" fill="white" stroke="#15803d" stroke-width="2"/><circle cx="588" cy="246" r="6" fill="white" stroke="#15803d" stroke-width="2"/><circle cx="640" cy="246" r="6" fill="#15803d"/><path d="M 634 232 l 6 -10 l 6 10 z" fill="#2563eb"/><circle cx="692" cy="246" r="6" fill="#15803d"/><circle cx="744" cy="246" r="6" fill="#15803d"/><rect x="790" y="240" width="12" height="12" transform="rotate(45 796 246)" fill="white" stroke="#b45309" stroke-width="2"/><rect x="842" y="240" width="12" height="12" transform="rotate(45 848 246)" fill="white" stroke="#b45309" stroke-width="2"/><text x="40" y="334" font-size="11.5" fill="#dc2626" text-anchor="start" font-weight="700" font-style="normal" font-family="inherit">UNGATED</text><line x1="108" y1="330" x2="872" y2="330" stroke="#e5e7eb" stroke-width="1"/><circle cx="120" cy="330" r="6" fill="#15803d"/><path d="M 114 316 l 6 -10 l 6 10 z" fill="#2563eb"/><path d="M 114 303 l 6 -10 l 6 10 z" fill="#2563eb"/><circle cx="172" cy="330" r="6" fill="#15803d"/><circle cx="224" cy="330" r="6" fill="#15803d"/><circle cx="276" cy="330" r="6" fill="#15803d"/><circle cx="328" cy="330" r="6" fill="#15803d"/><path d="M 322 316 l 6 -10 l 6 10 z" fill="#2563eb"/><path d="M 322 303 l 6 -10 l 6 10 z" fill="#2563eb"/><circle cx="380" cy="330" r="6" fill="#15803d"/><circle cx="432" cy="330" r="6" fill="white" stroke="#15803d" stroke-width="2"/><circle cx="484" cy="330" r="6" fill="white" stroke="#15803d" stroke-width="2"/><path d="M 478 316 l 6 -10 l 6 10 z" fill="#2563eb"/><circle cx="536" cy="330" r="6" fill="white" stroke="#15803d" stroke-width="2"/><circle cx="588" cy="330" r="6" fill="white" stroke="#15803d" stroke-width="2"/><circle cx="640" cy="330" r="6" fill="#15803d"/><path d="M 634 316 l 6 -10 l 6 10 z" fill="#2563eb"/><circle cx="692" cy="330" r="6" fill="#15803d"/><circle cx="744" cy="330" r="6" fill="#15803d"/><line x1="790" y1="324" x2="802" y2="336" stroke="#dc2626" stroke-width="2.4"/><line x1="790" y1="336" x2="802" y2="324" stroke="#dc2626" stroke-width="2.4"/><path d="M 790 316 l 6 -10 l 6 10 z" fill="#dc2626"/><path d="M 790 303 l 6 -10 l 6 10 z" fill="#dc2626"/><path d="M 790 290 l 6 -10 l 6 10 z" fill="#dc2626"/><line x1="842" y1="324" x2="854" y2="336" stroke="#dc2626" stroke-width="2.4"/><line x1="842" y1="336" x2="854" y2="324" stroke="#dc2626" stroke-width="2.4"/><text x="120" y="372" font-size="9.5" fill="#6b7280" text-anchor="end" font-weight="normal" font-style="normal" font-family="ui-monospace,Consolas,Menlo,monospace" transform="rotate(-38 120 372)">die</text><text x="172" y="372" font-size="9.5" fill="#6b7280" text-anchor="end" font-weight="normal" font-style="normal" font-family="ui-monospace,Consolas,Menlo,monospace" transform="rotate(-38 172 372)">die</text><text x="224" y="372" font-size="9.5" fill="#6b7280" text-anchor="end" font-weight="normal" font-style="normal" font-family="ui-monospace,Consolas,Menlo,monospace" transform="rotate(-38 224 372)">die</text><text x="276" y="372" font-size="9.5" fill="#6b7280" text-anchor="end" font-weight="normal" font-style="normal" font-family="ui-monospace,Consolas,Menlo,monospace" transform="rotate(-38 276 372)">circular</text><text x="328" y="372" font-size="9.5" fill="#6b7280" text-anchor="end" font-weight="normal" font-style="normal" font-family="ui-monospace,Consolas,Menlo,monospace" transform="rotate(-38 328 372)">circular</text><text x="380" y="372" font-size="9.5" fill="#6b7280" text-anchor="end" font-weight="normal" font-style="normal" font-family="ui-monospace,Consolas,Menlo,monospace" transform="rotate(-38 380 372)">circular</text><text x="432" y="372" font-size="9.5" fill="#6b7280" text-anchor="end" font-weight="normal" font-style="normal" font-family="ui-monospace,Consolas,Menlo,monospace" transform="rotate(-38 432 372)">liquefied</text><text x="484" y="372" font-size="9.5" fill="#6b7280" text-anchor="end" font-weight="normal" font-style="normal" font-family="ui-monospace,Consolas,Menlo,monospace" transform="rotate(-38 484 372)">liquefied</text><text x="536" y="372" font-size="9.5" fill="#6b7280" text-anchor="end" font-weight="normal" font-style="normal" font-family="ui-monospace,Consolas,Menlo,monospace" transform="rotate(-38 536 372)">liquefied</text><text x="588" y="372" font-size="9.5" fill="#6b7280" text-anchor="end" font-weight="normal" font-style="normal" font-family="ui-monospace,Consolas,Menlo,monospace" transform="rotate(-38 588 372)">deflated</text><text x="640" y="372" font-size="9.5" fill="#6b7280" text-anchor="end" font-weight="normal" font-style="normal" font-family="ui-monospace,Consolas,Menlo,monospace" transform="rotate(-38 640 372)">damp</text><text x="692" y="372" font-size="9.5" fill="#6b7280" text-anchor="end" font-weight="normal" font-style="normal" font-family="ui-monospace,Consolas,Menlo,monospace" transform="rotate(-38 692 372)">damp</text><text x="744" y="372" font-size="9.5" fill="#6b7280" text-anchor="end" font-weight="normal" font-style="normal" font-family="ui-monospace,Consolas,Menlo,monospace" transform="rotate(-38 744 372)">gleaming</text><text x="796" y="372" font-size="9.5" fill="#6b7280" text-anchor="end" font-weight="normal" font-style="normal" font-family="ui-monospace,Consolas,Menlo,monospace" transform="rotate(-38 796 372)">waterlogged</text><text x="848" y="372" font-size="9.5" fill="#6b7280" text-anchor="end" font-weight="normal" font-style="normal" font-family="ui-monospace,Consolas,Menlo,monospace" transform="rotate(-38 848 372)">waterlogged</text><text x="56" y="412" font-size="11" fill="#15803d" text-anchor="start" font-weight="normal" font-style="normal" font-family="inherit">● correct answer</text><text x="346" y="412" font-size="11" fill="#15803d" text-anchor="start" font-weight="normal" font-style="normal" font-family="inherit">○ defeated (correct)</text><text x="636" y="412" font-size="11" fill="#b45309" text-anchor="start" font-weight="normal" font-style="normal" font-family="inherit">◇ typed refusal</text><text x="56" y="432" font-size="11" fill="#dc2626" text-anchor="start" font-weight="normal" font-style="normal" font-family="inherit">✕ wrong answer</text><text x="346" y="432" font-size="11" fill="#2563eb" text-anchor="start" font-weight="normal" font-style="normal" font-family="inherit">▲ alias admitted (true)</text><text x="636" y="432" font-size="11" fill="#dc2626" text-anchor="start" font-weight="normal" font-style="normal" font-family="inherit">▲ alias admitted (poison)</text><text x="40" y="462" font-size="11.5" fill="#1f2937" text-anchor="start" font-weight="normal" font-style="normal" font-family="ui-monospace,Consolas,Menlo,monospace">resolution: GATED 13/2/0 · UNGATED 13/0/2  (ok / typed refusal / wrong answer)</text><text x="906" y="486" font-size="10" fill="#6b7280" text-anchor="end" font-weight="normal" font-style="italic" font-family="inherit">source: RESULTS-ratchet.json + RESULTS-alias-ring.json (shapes/order0, trace per episode)</text></svg>