<svg xmlns="http://www.w3.org/2000/svg" viewBox="0 0 920 440" font-family="Inter,'Segoe UI',Helvetica,Arial,sans-serif">
<!-- GENERATED by generate-figures.js from: riddle-probe.js#ISA · RESULTS-alias-ring.json — do not edit by hand -->
<defs><marker id="arr" viewBox="0 0 10 10" refX="9" refY="5" markerWidth="7" markerHeight="7" orient="auto-start-reverse"><path d="M0,0 L10,5 L0,10 z" fill="#6b7280"/></marker></defs>
<rect width="920" height="440" fill="white"/>
<rect x="376" y="52" width="430" height="302" rx="14" fill="#eff6ff" stroke="#2563eb" stroke-width="1.4" stroke-dasharray="7 5"/><text x="390" y="72" font-size="12" fill="#2563eb" text-anchor="start" font-weight="600" font-style="normal" font-family="inherit">cut C(round hole)</text><text x="390" y="88" font-size="11" fill="#2563eb" text-anchor="start" font-weight="normal" font-style="normal" font-family="ui-monospace,Consolas,Menlo,monospace">s ⊑ round</text><line x1="490" y1="178" x2="620" y2="94" stroke="#94a3b8" stroke-width="1.3"/><line x1="620" y1="178" x2="620" y2="94" stroke="#94a3b8" stroke-width="1.3"/><line x1="240" y1="178" x2="240" y2="94" stroke="#94a3b8" stroke-width="1.3"/><line x1="90" y1="178" x2="90" y2="94" stroke="#94a3b8" stroke-width="1.3"/><line x1="866" y1="178" x2="866" y2="94" stroke="#94a3b8" stroke-width="1.3"/><line x1="428" y1="288" x2="490" y2="204" stroke="#94a3b8" stroke-width="1.3"/><line x1="552" y1="288" x2="490" y2="204" stroke="#94a3b8" stroke-width="1.3"/><line x1="680" y1="288" x2="620" y2="204" stroke="#94a3b8" stroke-width="1.3"/><line x1="152" y1="288" x2="240" y2="204" stroke="#94a3b8" stroke-width="1.3"/><line x1="240" y1="288" x2="240" y2="204" stroke="#94a3b8" stroke-width="1.3"/><line x1="750" y1="178" x2="620" y2="94" stroke="#2563eb" stroke-width="1.4" stroke-dasharray="4 4"/><line x1="328" y1="288" x2="240" y2="204" stroke="#2563eb" stroke-width="1.4" stroke-dasharray="4 4"/><rect x="576" y="68" width="88" height="24" rx="12" fill="#f8fafc" stroke="#1f2937" stroke-width="1.2"/><text x="620" y="84.5" font-size="11.5" fill="#1f2937" text-anchor="middle" font-weight="700" font-style="normal" font-family="ui-monospace,Consolas,Menlo,monospace">round</text><rect x="196" y="68" width="88" height="24" rx="12" fill="#f8fafc" stroke="#1f2937" stroke-width="1.2"/><text x="240" y="84.5" font-size="11.5" fill="#1f2937" text-anchor="middle" font-weight="700" font-style="normal" font-family="ui-monospace,Consolas,Menlo,monospace">square</text><rect x="46" y="68" width="88" height="24" rx="12" fill="#f8fafc" stroke="#1f2937" stroke-width="1.2"/><text x="90" y="84.5" font-size="11.5" fill="#1f2937" text-anchor="middle" font-weight="700" font-style="normal" font-family="ui-monospace,Consolas,Menlo,monospace">star</text><rect x="822" y="68" width="88" height="24" rx="12" fill="#f8fafc" stroke="#1f2937" stroke-width="1.2"/><text x="866" y="84.5" font-size="11.5" fill="#1f2937" text-anchor="middle" font-weight="700" font-style="normal" font-family="ui-monospace,Consolas,Menlo,monospace">triangle</text><rect x="446" y="178" width="88" height="24" rx="12" fill="white" stroke="#c2c8d0" stroke-width="1.2"/><text x="490" y="194.5" font-size="11.5" fill="#1f2937" text-anchor="middle" font-weight="400" font-style="normal" font-family="ui-monospace,Consolas,Menlo,monospace">ball</text><rect x="576" y="178" width="88" height="24" rx="12" fill="white" stroke="#c2c8d0" stroke-width="1.2"/><text x="620" y="194.5" font-size="11.5" fill="#1f2937" text-anchor="middle" font-weight="400" font-style="normal" font-family="ui-monospace,Consolas,Menlo,monospace">disc</text><rect x="196" y="178" width="88" height="24" rx="12" fill="white" stroke="#c2c8d0" stroke-width="1.2"/><text x="240" y="194.5" font-size="11.5" fill="#1f2937" text-anchor="middle" font-weight="400" font-style="normal" font-family="ui-monospace,Consolas,Menlo,monospace">cube</text><rect x="46" y="178" width="88" height="24" rx="12" fill="white" stroke="#c2c8d0" stroke-width="1.2"/><text x="90" y="194.5" font-size="11.5" fill="#1f2937" text-anchor="middle" font-weight="400" font-style="normal" font-family="ui-monospace,Consolas,Menlo,monospace">startoken</text><rect x="822" y="178" width="88" height="24" rx="12" fill="white" stroke="#c2c8d0" stroke-width="1.2"/><text x="866" y="194.5" font-size="11.5" fill="#1f2937" text-anchor="middle" font-weight="400" font-style="normal" font-family="ui-monospace,Consolas,Menlo,monospace">pyramid</text><rect x="384" y="288" width="88" height="24" rx="12" fill="white" stroke="#c2c8d0" stroke-width="1.2"/><text x="428" y="304.5" font-size="11.5" fill="#1f2937" text-anchor="middle" font-weight="400" font-style="normal" font-family="ui-monospace,Consolas,Menlo,monospace">marble</text><rect x="508" y="288" width="88" height="24" rx="12" fill="white" stroke="#c2c8d0" stroke-width="1.2"/><text x="552" y="304.5" font-size="11.5" fill="#1f2937" text-anchor="middle" font-weight="400" font-style="normal" font-family="ui-monospace,Consolas,Menlo,monospace">football</text><rect x="636" y="288" width="88" height="24" rx="12" fill="white" stroke="#c2c8d0" stroke-width="1.2"/><text x="680" y="304.5" font-size="11.5" fill="#1f2937" text-anchor="middle" font-weight="400" font-style="normal" font-family="ui-monospace,Consolas,Menlo,monospace">coin</text><rect x="108" y="288" width="88" height="24" rx="12" fill="white" stroke="#c2c8d0" stroke-width="1.2"/><text x="152" y="304.5" font-size="11.5" fill="#1f2937" text-anchor="middle" font-weight="400" font-style="normal" font-family="ui-monospace,Consolas,Menlo,monospace">sugarcube</text><rect x="196" y="288" width="88" height="24" rx="12" fill="white" stroke="#c2c8d0" stroke-width="1.2"/><text x="240" y="304.5" font-size="11.5" fill="#1f2937" text-anchor="middle" font-weight="400" font-style="normal" font-family="ui-monospace,Consolas,Menlo,monospace">dice</text><rect x="706" y="178" width="88" height="24" rx="12" fill="white" stroke="#2563eb" stroke-width="1.2"/><text x="750" y="194.5" font-size="11.5" fill="#1f2937" text-anchor="middle" font-weight="400" font-style="normal" font-family="ui-monospace,Consolas,Menlo,monospace">sphere</text><rect x="284" y="288" width="88" height="24" rx="12" fill="white" stroke="#2563eb" stroke-width="1.2"/><text x="328" y="304.5" font-size="11.5" fill="#1f2937" text-anchor="middle" font-weight="400" font-style="normal" font-family="ui-monospace,Consolas,Menlo,monospace">die</text><text x="100" y="40" font-size="11" fill="#6b7280" text-anchor="middle" font-weight="normal" font-style="normal" font-family="inherit">root sorts (shape facet)</text><rect x="560" y="372" width="330" height="34" rx="17" fill="white" stroke="#2563eb" stroke-width="1.2" stroke-dasharray="4 4"/><text x="725" y="386" font-size="10.5" fill="#2563eb" text-anchor="middle" font-weight="600" font-style="normal" font-family="inherit">learned ring (real)</text><text x="725" y="400" font-size="11" fill="#2563eb" text-anchor="middle" font-weight="normal" font-style="normal" font-family="ui-monospace,Consolas,Menlo,monospace">circularhole · circular · circularaperture → round</text><line x1="725" y1="372" x2="725" y2="354" stroke="#2563eb" stroke-width="1.2" stroke-dasharray="4 4"/><text x="552" y="332" font-size="11" fill="#dc2626" text-anchor="middle" font-weight="normal" font-style="normal" font-family="ui-monospace,Consolas,Menlo,monospace">deflated ⊘ round</text><text x="552" y="346" font-size="10" fill="#dc2626" text-anchor="middle" font-weight="normal" font-style="italic" font-family="inherit">defeater (V5)</text><line x1="60" y1="400" x2="92" y2="400" stroke="#94a3b8" stroke-width="1.2"/><text x="98" y="404" font-size="11" fill="#6b7280" text-anchor="start" font-weight="normal" font-style="normal" font-family="inherit">isa edge (authored axiom)</text><line x1="310" y1="400" x2="342" y2="400" stroke="#2563eb" stroke-width="1.2" stroke-dasharray="4 4"/><text x="348" y="404" font-size="11" fill="#6b7280" text-anchor="start" font-weight="normal" font-style="normal" font-family="inherit">paraphrase-patch entry (cf. the ring)</text><text x="906" y="428" font-size="10" fill="#6b7280" text-anchor="end" font-weight="normal" font-style="italic" font-family="inherit">source: riddle-probe.js#ISA + RESULTS-alias-ring.json finalRing (order0)</text></svg>